HIERARCHY
ROOT hip
{
	OFFSET 0.00 0.00 0.00
	CHANNELS 6 Xposition Yposition Zposition Xrotation Yrotation Zrotation
	JOINT abdomen
	{
		OFFSET 0.1133 -0.2307 3.3019
		CHANNELS 3 Xrotation Yrotation Zrotation
		JOINT chest
		{
			OFFSET 0.1107 -0.1768 21.1967
			CHANNELS 3 Xrotation Yrotation Zrotation
			JOINT neck
			{
				OFFSET 0.0000 4.3081 22.9801
				CHANNELS 3 Xrotation Yrotation Zrotation
				JOINT head
				{
					OFFSET -0.2563 5.6164 9.0688
					CHANNELS 3 Xrotation Yrotation Zrotation
					End Site
					{
						OFFSET 0.0000 3.1102 -0.0000
					}
				}
			}
			JOINT lCollar
			{
				OFFSET 3.1323 1.7225 21.1460
				CHANNELS 3 Xrotation Yrotation Zrotation
				JOINT lShldr
				{
					OFFSET 3.2739 -5.2688 -1.2145
					CHANNELS 3 Xrotation Yrotation Zrotation
					JOINT lForeArm
					{
						OFFSET -0.3326 -12.9583 -1.4234
						CHANNELS 3 Xrotation Yrotation Zrotation
						JOINT lHand
						{
							OFFSET -0.8016 -18.3420 1.0179
							CHANNELS 3 Xrotation Yrotation Zrotation
							End Site
							{
								OFFSET 3.9370 0.0000 0.0000
							}
						}
					}
				}
			}
			JOINT rCollar
			{
				OFFSET -2.7896 1.7225 21.1460
				CHANNELS 3 Xrotation Yrotation Zrotation
				JOINT rShldr
				{
					OFFSET -3.2739 -5.2688 -1.2145
					CHANNELS 3 Xrotation Yrotation Zrotation
					JOINT rForeArm
					{
						OFFSET 0.3326 -12.9583 -1.4234
						CHANNELS 3 Xrotation Yrotation Zrotation
						JOINT rHand
						{
							OFFSET 0.8016 -18.3420 1.0179
							CHANNELS 3 Xrotation Yrotation Zrotation
							End Site
							{
								OFFSET -3.9370 0.0000 0.0000
							}
						}
					}
				}
			}
		}
	}
	JOINT rThigh
	{
		OFFSET -4.8916 -5.5348 3.1237
		CHANNELS 3 Xrotation Yrotation Zrotation
		JOINT rShin
		{
			OFFSET -0.3314 -17.2252 -1.2799
			CHANNELS 3 Xrotation Yrotation Zrotation
			JOINT rFoot
			{
				OFFSET 0.5200 -10.7369 0.2921
				CHANNELS 3 Xrotation Yrotation Zrotation
				End Site
				{
					OFFSET 0.0000 -2.3873 4.4077
				}
			}
		}
	}
	JOINT lThigh
	{
		OFFSET 5.6823 -5.5348 3.1237
		CHANNELS 3 Xrotation Yrotation Zrotation
		JOINT lShin
		{
			OFFSET 0.3314 -17.2252 -1.2799
			CHANNELS 3 Xrotation Yrotation Zrotation
			JOINT lFoot
			{
				OFFSET -0.5200 -10.7369 0.2921
				CHANNELS 3 Xrotation Yrotation Zrotation
				End Site
				{
					OFFSET 0.0000 -2.3866 4.4077
				}
			}
		}
	}
}
MOTION
Frames: 20
Frame Time: 0.040000
0.0000 0.0000 0.1000 1.0000 0.0000 0.0000 1.0000 0.0000 0.0000 0.0000 0.0000 0.0000 0.0000 0.0000 0.0000 1.0000 0.0000 0.0000 1.0000 0.0000 0.0000 0.0000 0.0000 0.0000 1.0000 0.0000 0.0000 0.0000 0.0000 0.0000 0.0000 0.0000 0.0000 1.0000 0.0000 0.0000 1.0000 0.0000 0.0000 1.0000 0.0000 0.0000 0.0000 0.0000 0.0000 1.0000 0.0000 0.0000 0.0000 0.0000 0.0000 0.0000 0.0000 0.0000 0.0000 0.0000 0.0000 1.0000 0.0000 0.0000 
0.0000 0.0000 -0.0000 0.0000 0.0000 0.0000 0.0000 0.0000 0.0000 -0.0072 0.3937 2.0880 5.0784 0.0000 0.0000 0.0000 0.0000 0.0000 0.0000 0.0000 0.0000 -29.6947 0.0000 0.0000 0.0000 0.0000 0.0000 43.6957 -1.5801 0.0782 0.0000 0.0000 -2.5918 0.0000 0.0000 0.0000 0.0000 0.0000 0.0000 0.0000 0.0000 0.0000 -32.1883 0.0852 0.1768 0.0000 0.0000 0.0000 43.8488 -0.0987 0.1083 26.5707 0.0000 0.0000 19.9099 0.0000 0.0000 0.0000 0.0000 0.0000 
0.0000 0.0000 -0.0000 0.0000 0.0000 0.0000 0.0000 0.0000 0.0000 -0.0060 0.3587 1.9024 5.0712 0.0000 0.0000 0.0000 0.0000 0.0000 0.0000 0.0000 0.0000 -28.4609 -0.0001 -0.0001 0.0000 0.0000 0.0000 39.8790 -1.4500 0.0234 0.0000 0.0000 -2.3614 -0.0843 0.0000 0.0000 3.8449 0.0004 0.0000 0.0000 0.0000 0.0000 -31.3317 0.0842 0.1716 0.0000 0.0000 0.0000 43.6111 -0.0961 0.1054 25.7476 -0.0022 -0.0048 37.0384 -0.0001 -0.0039 7.7720 -0.0011 -0.0094 
0.0000 0.0000 -0.0000 0.0000 0.0000 0.0000 0.0000 0.0000 0.0000 -0.0031 0.2601 1.3796 5.0088 0.0000 0.0000 0.0000 0.0000 0.0000 0.0000 0.0000 0.0000 -24.3712 -0.0001 -0.0001 0.0000 0.0000 0.0000 28.9447 -1.0595 -0.0841 0.0000 0.0000 -1.7125 -0.8121 0.0001 0.0000 15.5672 0.0003 -0.0001 0.0000 0.0000 0.0000 -28.2323 0.0801 0.1529 0.0000 0.0000 0.0000 41.5537 -0.0867 0.0928 22.2092 -0.0091 -0.0155 69.6744 -0.0006 -0.0125 31.5500 -0.0144 -0.0367 
0.0000 0.0000 -0.0000 0.0000 0.0000 0.0000 0.0000 0.0000 0.0000 -0.0008 0.1336 0.7084 4.8158 0.0000 0.0000 0.0000 0.0000 0.0000 0.0000 0.0000 0.0000 -17.4376 -0.0001 0.0000 0.0000 0.0000 0.0000 14.7484 -0.5338 -0.1101 0.0000 0.0000 -0.8793 -3.0695 0.0003 0.0001 32.9748 -0.0006 0.0001 0.0000 0.0000 0.0000 -22.3603 0.0698 0.1181 0.0000 0.0000 0.0000 36.4563 -0.0710 0.0705 14.2857 -0.0210 -0.0320 83.8650 -0.0017 -0.0128 63.8671 -0.0539 -0.0604 
0.0000 0.0000 -0.0000 0.0000 0.0000 0.0000 0.0000 0.0000 0.0000 -0.0001 0.0350 0.1856 4.4458 0.0000 0.0000 0.0000 0.0000 0.0000 0.0000 0.0000 0.0000 -8.7644 0.0000 0.0000 0.0000 0.0000 0.0000 3.8159 -0.1347 -0.0415 0.0000 0.0000 -0.2304 -7.4276 0.0004 0.0002 50.9356 -0.0006 0.0002 0.0000 0.0000 0.0000 -14.0600 0.0494 0.0712 0.0000 0.0000 0.0000 25.1281 -0.0353 0.0309 1.3516 -0.0368 -0.0533 81.0831 0.0003 -0.0056 87.6477 -0.0989 -0.0591 
0.0000 0.0000 -0.0000 0.0000 0.0000 0.0000 0.0000 0.0000 0.0000 0.0000 0.0000 0.0000 3.9150 0.0000 0.0000 0.0000 0.0000 0.0000 0.0000 0.0000 0.0000 0.2120 0.0000 0.0000 0.0000 0.0000 0.0000 0.0000 0.0000 0.0000 0.0000 0.0000 0.0000 -13.7201 0.0000 0.0000 65.5731 0.0000 0.0000 0.0000 0.0000 0.0000 -4.3687 0.0172 0.0208 0.0000 0.0000 0.0000 10.9578 -0.0036 0.0036 -15.4309 -0.0533 -0.0787 78.2500 0.0000 0.0000 95.4142 -0.1322 -0.0480 
0.0000 0.0000 -0.0000 0.0000 0.0000 0.0000 0.0000 0.0000 0.0000 0.0000 0.0000 0.0000 0.0000 0.0000 0.0000 0.0000 0.0000 0.0000 0.0000 0.0000 0.0000 11.7031 0.0000 0.0000 0.0000 0.0000 0.0000 0.0000 0.0000 0.0000 0.0000 0.0000 0.0000 -32.1012 0.0000 0.0000 78.6069 0.0004 -0.0001 -5.0898 0.0000 0.0000 9.9453 -0.0447 -0.0420 0.0000 0.0000 0.0000 0.0000 0.0000 0.0000 -44.2893 -0.0718 -0.1235 99.2486 -0.0176 -0.0245 95.3191 -0.1569 -0.0012 
0.0000 0.0000 -0.0000 0.0000 0.0000 0.0000 0.0000 0.0000 0.0000 -0.0005 -0.1044 -0.5535 -2.3665 0.0000 0.0000 0.0000 0.0000 0.0000 0.0000 0.0000 0.7575 18.0458 -0.0301 -0.0036 0.6803 -0.0197 -0.0026 0.0000 0.0000 0.0000 0.0000 0.0000 0.0000 -30.9644 0.0001 0.0000 59.8359 0.0005 -0.0002 -4.9223 0.0000 0.0000 20.0885 -0.0747 -0.0598 0.3674 0.0002 -0.0062 -7.3032 -0.0042 0.0045 -42.8986 -0.0732 -0.1314 79.5012 -0.0124 -0.0433 123.5193 -0.2315 -0.0058 
0.0000 0.0000 -0.0000 0.0000 0.0000 0.0000 0.0000 0.0000 0.0000 -0.0050 -0.3277 -1.7379 -3.7642 0.0000 0.0000 0.0000 0.0000 0.0000 0.0000 0.0000 2.3785 21.3555 -0.0605 -0.0074 4.2108 -0.0873 -0.0100 0.0000 0.0000 0.0000 0.0000 0.0000 0.0000 -27.7966 0.0000 0.0000 18.0773 0.0033 -0.0004 -3.4886 0.0002 0.0000 27.4338 -0.0829 -0.0665 3.5324 0.0028 -0.0172 -12.2025 -0.0137 0.0134 -38.9273 -0.0770 -0.1464 34.8231 0.0223 -0.0387 -5.1597 -0.1319 0.1136 
0.0000 0.0000 -0.0000 0.0000 0.0000 0.0000 0.0000 0.0000 0.0000 -0.0086 -0.4320 -2.2913 -4.1114 0.0000 0.0000 0.0000 0.0000 0.0000 0.0000 0.0000 3.1360 22.0825 -0.0720 -0.0091 11.3083 -0.1866 -0.0122 0.0000 0.0000 0.0000 0.0000 0.0000 0.0000 -24.3634 0.0000 0.0000 0.0000 0.0000 0.0000 0.0000 0.0000 0.0000 29.8221 -0.0824 -0.0680 11.2708 0.0117 -0.0174 -13.6366 -0.0183 0.0175 -34.3932 -0.0790 -0.1479 11.2140 0.0273 -0.0182 21.1112 0.0480 -0.0384 
0.0000 0.0000 -0.0000 0.0000 0.0000 0.0000 0.0000 0.0000 0.0000 -0.0081 -0.4192 -2.2234 -3.7376 0.0000 0.0000 0.0000 0.0000 0.0000 0.0000 0.0000 2.9423 20.5237 -0.0764 -0.0086 23.4838 -0.2436 -0.0009 0.2173 0.0005 -0.0083 0.0000 0.0000 0.0000 -21.0714 0.0000 0.0000 0.0000 0.0000 0.0000 10.0133 0.2915 0.0582 26.7115 -0.0714 -0.0646 26.5514 0.0196 -0.0046 -13.3868 -0.0168 0.0170 -30.8458 -0.0755 -0.1353 6.6589 0.0167 -0.0103 31.7239 0.0353 -0.0379 
0.0000 0.0000 -0.0000 0.0000 0.0000 0.0000 0.0000 0.0000 0.0000 -0.0066 -0.3773 -2.0014 -2.6101 0.0000 0.0000 0.0000 0.0000 0.0000 0.0000 0.0000 2.3785 15.7217 -0.0862 -0.0085 42.6033 -0.2041 0.0060 2.0786 -0.0015 -0.0375 0.0000 0.0000 0.0000 -17.2883 0.0000 0.0000 0.0000 0.0000 0.0000 17.4800 0.5889 0.0780 16.5875 -0.0374 -0.0495 53.3732 0.0219 0.0224 -11.4799 -0.0103 0.0201 -28.1318 -0.0667 -0.1151 5.2944 0.0132 -0.0079 33.5675 0.0217 -0.0302 
0.0000 0.0000 -0.0000 0.0000 0.0000 0.0000 0.0000 0.0000 0.0000 -0.0043 -0.3053 -1.6190 -0.8867 0.0000 0.0000 0.0000 0.0000 0.0000 0.0000 0.0000 1.5680 7.8374 -0.0942 -0.0104 63.6614 -0.1050 -0.0241 7.8893 -0.0135 -0.0899 0.0000 0.0000 0.0000 -13.2467 0.0000 0.0000 0.0000 0.0000 0.0000 15.0683 0.5067 0.0780 0.3520 0.0103 -0.0134 84.7692 0.0318 0.0563 -1.4060 0.0002 0.0265 -25.3819 -0.0544 -0.0894 3.1845 0.0080 -0.0046 31.3239 0.0155 -0.0229 
0.0000 0.0000 -0.0000 0.0000 0.0000 0.0000 0.0000 0.0000 0.0000 -0.0020 -0.2100 -1.1138 1.0348 0.0000 0.0000 0.0000 0.0000 0.0000 0.0000 0.0000 0.7575 -2.4603 -0.0893 -0.0141 78.6216 -0.0199 -0.0701 19.3377 -0.0185 -0.1559 0.0000 0.0000 0.0000 -9.3601 0.0000 0.0000 0.0000 0.0000 0.0000 8.7400 0.2915 0.0615 -18.0766 0.0503 0.0417 106.9281 0.0465 0.0765 23.2018 0.0217 0.0335 -21.3598 -0.0408 -0.0616 1.3923 0.0035 -0.0020 24.3831 0.0120 -0.0152 
0.0000 0.0000 -0.0000 0.0000 0.0000 0.0000 0.0000 0.0000 0.0000 -0.0005 -0.1045 -0.5543 2.7058 0.0000 0.0000 0.0000 0.0000 0.0000 0.0000 0.0000 0.1937 -13.9160 -0.0601 -0.0137 83.6176 0.0220 -0.0787 36.0083 0.0160 -0.2317 0.0000 0.0000 0.0000 -6.0089 0.0000 0.0000 0.0000 0.0000 0.0000 2.4117 0.0794 0.0214 -33.8245 0.0702 0.0969 114.1419 0.0514 0.0808 55.7704 0.0633 0.0331 -14.6116 -0.0273 -0.0362 0.3122 0.0008 -0.0005 15.4910 0.0076 -0.0077 
0.0000 0.0000 -0.0000 0.0000 0.0000 0.0000 0.0000 0.0000 0.0000 0.0000 0.0000 0.0000 3.8620 0.0000 0.0000 0.0000 0.0000 0.0000 0.0000 0.0000 0.0000 -25.0016 -0.0001 0.0000 75.8101 -0.0008 0.0000 92.4049 -0.0010 -0.0008 0.0000 0.0000 0.0000 -3.3539 0.0000 0.0000 0.0000 0.0000 0.0000 0.0000 0.0000 0.0000 -44.5087 0.0759 0.1367 80.7364 0.0030 -0.0010 87.5575 0.1211 0.0118 -3.7671 -0.0149 -0.0178 0.0000 0.0000 0.0000 4.0487 0.0012 -0.0011 
0.0000 0.0000 -0.0000 0.0000 0.0000 0.0000 0.0000 0.0000 0.0000 -0.0010 0.1479 0.7845 4.6062 0.0000 0.0000 0.0000 0.0000 0.0000 0.0000 0.0000 0.0000 -38.6946 0.1343 0.0564 52.3419 -0.0497 0.0581 0.1375 -0.1627 -0.3618 0.0000 0.0000 -0.6260 -1.3457 0.0000 0.0000 0.0000 0.0000 0.0000 0.0000 0.0000 0.0000 -51.3413 0.0806 0.1592 45.0513 0.0038 -0.0194 142.2640 0.3067 0.0150 17.7229 -0.0061 -0.0070 4.8004 0.0000 0.0001 1.2719 0.0004 -0.0003 
0.0000 0.0000 -0.0000 0.0000 0.0000 0.0000 0.0000 0.0000 0.0000 -0.0048 0.3234 1.7154 4.9964 0.0000 0.0000 0.0000 0.0000 0.0000 0.0000 0.0000 0.0000 -35.1144 0.0779 0.0299 18.0156 -0.0364 0.0231 22.2136 -0.8652 -0.2768 0.0000 0.0000 -1.9657 -0.2470 0.0000 0.0000 0.0000 0.0000 0.0000 0.0000 0.0000 0.0000 -53.5260 0.0804 0.1718 11.6175 0.0088 -0.0085 94.8234 0.1236 0.1578 25.4065 -0.0008 -0.0014 15.1094 0.0000 0.0000 0.1324 0.0000 0.0000 
0.0000 0.0000 -0.0000 0.0000 0.0000 0.0000 0.0000 0.0000 0.0000 -0.0072 0.3937 2.0880 5.0784 0.0000 0.0000 0.0000 0.0000 0.0000 0.0000 0.0000 0.0000 -29.6947 0.0000 0.0000 0.0000 0.0000 0.0000 43.6957 -1.5801 0.0782 0.0000 0.0000 -2.5918 0.0000 0.0000 0.0000 0.0000 0.0000 0.0000 0.0000 0.0000 0.0000 -32.1883 0.0852 0.1768 0.0000 0.0000 0.0000 43.8488 -0.0987 0.1083 26.5707 0.0000 0.0000 19.9099 0.0000 0.0000 0.0000 0.0000 0.0000 
